<svg width="45" height="45" viewBox="0 0 45 45" fill="none" xmlns="http://www.w3.org/2000/svg">
<mask id="mask0_129_511" style="mask-type:luminance" maskUnits="userSpaceOnUse" x="0" y="0" width="45" height="45">
<path d="M0 0H45V45H0V0Z" fill="white"/>
</mask>
<g mask="url(#mask0_129_511)">
<path d="M22.5885 45.1719C21.849 45.1719 21.1094 45.1354 20.375 45.0625C19.6354 44.9896 18.9062 44.8802 18.1823 44.7344C17.4531 44.5938 16.7396 44.4115 16.0313 44.1979C15.3229 43.9844 14.625 43.7344 13.9427 43.4531C13.2604 43.1667 12.5938 42.8542 11.9375 42.5052C11.2865 42.1563 10.6562 41.776 10.0365 41.3646C9.42187 40.9531 8.82812 40.5156 8.26042 40.0417C7.6875 39.5729 7.14063 39.0781 6.61458 38.5573C6.09375 38.0313 5.59896 37.4844 5.13021 36.9115C4.65625 36.3438 4.21875 35.75 3.80729 35.1354C3.39583 34.5156 3.01563 33.8854 2.66667 33.2344C2.31771 32.5781 2.00521 31.9115 1.71875 31.2292C1.4375 30.5469 1.1875 29.849 0.973958 29.1406C0.760417 28.4323 0.578125 27.7188 0.4375 26.9896C0.291667 26.2656 0.182292 25.5365 0.109375 24.7969C0.036459 24.0625 0 23.3229 0 22.5833C0 21.8438 0.036459 21.1094 0.109375 20.3698C0.182292 19.6354 0.291667 18.9063 0.4375 18.1771C0.578125 17.4531 0.760417 16.7344 0.973958 16.0313C1.1875 15.3229 1.4375 14.625 1.71875 13.9427C2.00521 13.2604 2.31771 12.5885 2.66667 11.9375C3.01563 11.2865 3.39583 10.651 3.80729 10.0365C4.21875 9.42188 4.65625 8.82812 5.13021 8.25521C5.59896 7.68229 6.09375 7.13542 6.61458 6.61458C7.14063 6.09375 7.6875 5.59375 8.26042 5.125C8.82812 4.65625 9.42187 4.21875 10.0365 3.80729C10.6562 3.39583 11.2865 3.01563 11.9375 2.66667C12.5938 2.31771 13.2604 2 13.9427 1.71875C14.625 1.4375 15.3229 1.1875 16.0313 0.973958C16.7396 0.755209 17.4531 0.578125 18.1823 0.432292C18.9062 0.286458 19.6354 0.182292 20.375 0.109375C21.1094 0.036459 21.849 0 22.5885 0C23.3281 0 24.0625 0.036459 24.8021 0.109375C25.5365 0.182292 26.2656 0.286458 26.9948 0.432292C27.7188 0.578125 28.4375 0.755209 29.1458 0.973958C29.849 1.1875 30.5469 1.4375 31.2292 1.71875C31.9115 2 32.5833 2.31771 33.2344 2.66667C33.8854 3.01563 34.5208 3.39583 35.1354 3.80729C35.75 4.21875 36.3438 4.65625 36.9167 5.125C37.4896 5.59375 38.0365 6.09375 38.5573 6.61458C39.0781 7.13542 39.5781 7.68229 40.0469 8.25521C40.5156 8.82812 40.9531 9.42188 41.3646 10.0365C41.776 10.651 42.1563 11.2865 42.5052 11.9375C42.8542 12.5885 43.1719 13.2604 43.4531 13.9427C43.7344 14.625 43.9844 15.3229 44.1979 16.0313C44.4167 16.7344 44.5938 17.4531 44.7396 18.1771C44.8854 18.9063 44.9896 19.6354 45.0625 20.3698C45.1354 21.1094 45.1719 21.8438 45.1719 22.5833C45.1719 23.3229 45.1354 24.0625 45.0625 24.7969C44.9896 25.5365 44.8802 26.2656 44.7344 26.9896C44.5885 27.7135 44.4115 28.4323 44.1927 29.1406C43.9792 29.8438 43.7292 30.5417 43.4479 31.224C43.1615 31.9063 42.849 32.5729 42.5 33.2292C42.151 33.8802 41.7708 34.5104 41.3594 35.125C40.9479 35.7396 40.5052 36.3333 40.0365 36.9063C39.5677 37.4792 39.0729 38.026 38.5521 38.5469C38.026 39.0729 37.4792 39.5677 36.9063 40.0365C36.3385 40.5052 35.7448 40.9479 35.1302 41.3542C34.5156 41.7656 33.8802 42.1458 33.2292 42.4948C32.5781 42.8438 31.9115 43.1615 31.224 43.4427C30.5417 43.7292 29.849 43.9792 29.1406 44.1927C28.4323 44.4063 27.7188 44.5885 26.9896 44.7344C26.2656 44.8802 25.5365 44.9844 24.8021 45.0573C24.0625 45.1354 23.3281 45.1719 22.5885 45.1719ZM22.5885 2.54167C21.2708 2.54167 19.9688 2.67188 18.6771 2.92708C17.3854 3.1875 16.1354 3.56771 14.9167 4.06771C13.7031 4.57292 12.5469 5.19271 11.4531 5.92188C10.3594 6.65104 9.34375 7.48437 8.41667 8.41146C7.48437 9.34375 6.65625 10.3542 5.92188 11.4531C5.19271 12.5469 4.57292 13.6979 4.07292 14.9167C3.56771 16.1302 3.1875 17.3854 2.93229 18.6771C2.67187 19.9635 2.54688 21.2708 2.54688 22.5833C2.54688 23.901 2.67187 25.2031 2.93229 26.4948C3.1875 27.7865 3.56771 29.0365 4.07292 30.2552C4.57292 31.4688 5.19271 32.625 5.92188 33.7188C6.65625 34.8125 7.48437 35.8281 8.41667 36.7552C9.34375 37.6875 10.3594 38.5156 11.4531 39.25C12.5469 39.9792 13.7031 40.599 14.9167 41.099C16.1354 41.6042 17.3854 41.9844 18.6771 42.2396C19.9688 42.5 21.2708 42.625 22.5885 42.625C23.901 42.625 25.2083 42.5 26.4948 42.2396C27.7865 41.9844 29.0417 41.6042 30.2552 41.099C31.474 40.599 32.625 39.9792 33.7188 39.25C34.8177 38.5156 35.8281 37.6875 36.7604 36.7552C37.6875 35.8281 38.5208 34.8125 39.25 33.7188C39.9792 32.625 40.599 31.4688 41.1042 30.2552C41.6042 29.0365 41.9844 27.7865 42.2448 26.4948C42.5 25.2031 42.6302 23.901 42.6302 22.5833C42.625 21.2708 42.4948 19.9688 42.2396 18.6771C41.9844 17.3854 41.599 16.1354 41.099 14.9167C40.5938 13.7031 39.974 12.5469 39.2448 11.4531C38.5156 10.3594 37.6823 9.34896 36.75 8.42188C35.8229 7.48958 34.8125 6.65625 33.7188 5.92708C32.625 5.19792 31.4688 4.57812 30.2552 4.07292C29.0365 3.57292 27.7865 3.1875 26.4948 2.93229C25.2031 2.67708 23.901 2.54688 22.5885 2.54167Z" fill="black"/>
</g>
<path d="M30.2246 36.444H14.9538C14.6413 36.444 14.3757 36.3346 14.1517 36.1107C13.9329 35.8919 13.8184 35.6211 13.8184 35.3086V9.86068C13.8184 9.54818 13.9329 9.28255 14.1517 9.05859C14.3757 8.83984 14.6413 8.73047 14.9538 8.73047H30.2246C30.5371 8.73047 30.8027 8.83984 31.0215 9.05859C31.2454 9.28255 31.3548 9.54818 31.3548 9.86068V35.3086C31.3548 35.6211 31.2454 35.8919 31.0215 36.1107C30.8027 36.3346 30.5371 36.444 30.2246 36.444ZM16.084 34.1784H29.0892V10.9961H16.084V34.1784Z" fill="black"/>
<path d="M29.7972 14.9479H15.5212C15.2087 14.9479 14.9378 14.8385 14.7191 14.6198C14.5003 14.3958 14.3857 14.1302 14.3857 13.8177C14.3857 13.5052 14.5003 13.2396 14.7191 13.0156C14.9378 12.7969 15.2087 12.6875 15.5212 12.6875H29.7972C30.1097 12.6875 30.3753 12.7969 30.5993 13.0156C30.818 13.2396 30.9274 13.5052 30.9274 13.8177C30.9274 14.1302 30.818 14.3958 30.5993 14.6198C30.3753 14.8385 30.1097 14.9531 29.7972 14.9479Z" fill="black"/>
<path d="M29.7972 29.2969H15.5212C15.2087 29.2969 14.9378 29.1875 14.7191 28.9635C14.4951 28.7448 14.3857 28.4792 14.3857 28.1667C14.3857 27.8542 14.4951 27.5833 14.7191 27.3646C14.9378 27.1406 15.2087 27.0312 15.5212 27.0312H29.7972C30.1097 27.0312 30.3753 27.1406 30.5941 27.3646C30.818 27.5833 30.9274 27.8542 30.9274 28.1667C30.9274 28.4792 30.818 28.7448 30.5941 28.9635C30.3753 29.1875 30.1097 29.2969 29.7972 29.2969Z" fill="black"/>
<path d="M24.0007 31.6302C24.0007 31.8177 23.9642 32 23.8913 32.1719C23.8184 32.3437 23.7194 32.5 23.584 32.6302C23.4538 32.7656 23.3027 32.8646 23.1257 32.9375C22.9538 33.0104 22.7767 33.0469 22.5892 33.0469C22.4017 33.0469 22.2194 33.0104 22.0475 32.9375C21.8757 32.8646 21.7194 32.7656 21.5892 32.6302C21.459 32.5 21.3548 32.3437 21.2819 32.1719C21.209 32 21.1777 31.8177 21.1777 31.6302C21.1777 31.4427 21.209 31.2656 21.2819 31.0938C21.3548 30.9167 21.459 30.7656 21.5892 30.6354C21.7194 30.5 21.8757 30.401 22.0475 30.3281C22.2194 30.2552 22.4017 30.2188 22.5892 30.2188C22.7767 30.2188 22.9538 30.2552 23.1257 30.3281C23.3027 30.401 23.4538 30.5 23.584 30.6354C23.7194 30.7656 23.8184 30.9167 23.8913 31.0938C23.9642 31.2656 24.0007 31.4427 24.0007 31.6302Z" fill="black"/>
</svg>
