<svg width="46" height="46" viewBox="0 0 46 46" fill="none" xmlns="http://www.w3.org/2000/svg">
<mask id="mask0_129_512" style="mask-type:luminance" maskUnits="userSpaceOnUse" x="0" y="0" width="46" height="46">
<path d="M0.541992 0.316406H45.542V45.3164H0.541992V0.316406Z" fill="white"/>
</mask>
<g mask="url(#mask0_129_512)">
<path d="M23.1253 45.4883C22.3857 45.4883 21.6462 45.4518 20.9118 45.3789C20.1774 45.306 19.443 45.1966 18.7191 45.0508C17.9951 44.9102 17.2764 44.7279 16.568 44.5143C15.8597 44.3008 15.167 44.0508 14.4847 43.7695C13.7972 43.4831 13.1305 43.1706 12.4795 42.8216C11.8285 42.4727 11.193 42.0924 10.5785 41.681C9.96387 41.2695 9.37012 40.832 8.7972 40.3581C8.22428 39.8893 7.67741 39.3945 7.15658 38.8737C6.63053 38.3477 6.13574 37.8008 5.66699 37.2279C5.19824 36.6602 4.75553 36.0664 4.34408 35.4518C3.93783 34.832 3.55762 34.2018 3.20866 33.5508C2.8597 32.8945 2.54199 32.2279 2.26074 31.5456C1.97428 30.8633 1.72949 30.1654 1.51074 29.457C1.2972 28.7487 1.12012 28.0352 0.974284 27.306C0.828451 26.582 0.719075 25.8529 0.646159 25.1133C0.578451 24.3789 0.541992 23.6393 0.541992 22.8997C0.541992 22.1602 0.578451 21.4258 0.646159 20.6862C0.719075 19.9518 0.828451 19.2227 0.974284 18.4935C1.12012 17.7695 1.2972 17.0508 1.51074 16.3477C1.72949 15.6393 1.97428 14.9414 2.26074 14.2591C2.54199 13.5768 2.8597 12.9049 3.20866 12.2539C3.55762 11.6029 3.93783 10.9674 4.34408 10.3529C4.75553 9.73828 5.19824 9.14453 5.66699 8.57161C6.13574 7.9987 6.63053 7.45182 7.15658 6.93099C7.67741 6.41016 8.22428 5.91016 8.7972 5.44141C9.37012 4.97266 9.96387 4.53516 10.5785 4.1237C11.193 3.71224 11.8285 3.33203 12.4795 2.98307C13.1305 2.63411 13.7972 2.31641 14.4847 2.03516C15.167 1.75391 15.8597 1.50391 16.568 1.29036C17.2764 1.07162 17.9951 0.894531 18.7191 0.748698C19.443 0.602865 20.1774 0.498699 20.9118 0.425781C21.6462 0.352865 22.3857 0.316406 23.1253 0.316406C23.8649 0.316406 24.6045 0.352865 25.3389 0.425781C26.0732 0.498699 26.8076 0.602865 27.5316 0.748698C28.2555 0.894531 28.9743 1.07162 29.6826 1.29036C30.391 1.50391 31.0837 1.75391 31.7712 2.03516C32.4535 2.31641 33.1201 2.63411 33.7712 2.98307C34.4274 3.33203 35.0576 3.71224 35.6722 4.1237C36.2868 4.53516 36.8805 4.97266 37.4535 5.44141C38.0264 5.91016 38.5732 6.41016 39.0941 6.93099C39.6201 7.45182 40.1149 7.9987 40.5837 8.57161C41.0524 9.14453 41.4951 9.73828 41.9066 10.3529C42.318 10.9674 42.6982 11.6029 43.0472 12.2539C43.391 12.9049 43.7087 13.5768 43.9899 14.2591C44.2764 14.9414 44.5264 15.6393 44.7399 16.3477C44.9535 17.0508 45.1357 17.7695 45.2764 18.4935C45.4222 19.2227 45.5316 19.9518 45.6045 20.6862C45.6774 21.4258 45.7139 22.1602 45.7139 22.8997C45.7087 23.6393 45.6722 24.3789 45.5993 25.1133C45.5264 25.8529 45.417 26.582 45.2712 27.306C45.1305 28.0299 44.9482 28.7487 44.7347 29.457C44.516 30.1602 44.2712 30.8581 43.9847 31.5404C43.7035 32.2227 43.3857 32.8893 43.0368 33.5456C42.6878 34.1966 42.3076 34.8268 41.8962 35.4414C41.4847 36.056 41.0472 36.6497 40.5785 37.2227C40.1097 37.7956 39.6097 38.3424 39.0889 38.8633C38.568 39.3893 38.0212 39.8841 37.4482 40.3529C36.8753 40.8216 36.2816 41.2643 35.667 41.6706C35.0524 42.082 34.4222 42.4622 33.766 42.8112C33.1149 43.1602 32.4482 43.4779 31.766 43.7591C31.0837 44.0456 30.3857 44.2956 29.6774 44.5091C28.9743 44.7227 28.2555 44.905 27.5316 45.0508C26.8076 45.1966 26.0732 45.3008 25.3389 45.3737C24.6045 45.4518 23.8649 45.4883 23.1253 45.4883ZM23.1253 2.85807C21.8076 2.85807 20.5055 2.98828 19.2139 3.24349C17.9274 3.50391 16.6722 3.88411 15.4587 4.38411C14.2399 4.88932 13.0837 5.50911 11.9899 6.23828C10.8962 6.96745 9.88574 7.80078 8.95345 8.72786C8.02637 9.66016 7.19303 10.6706 6.46387 11.7695C5.72949 12.8633 5.11491 14.0143 4.6097 15.2331C4.10449 16.4466 3.72428 17.7018 3.46908 18.9935C3.21387 20.2799 3.08366 21.5872 3.08366 22.8997C3.08366 24.2174 3.21387 25.5195 3.46908 26.8112C3.72428 28.1029 4.10449 29.3529 4.6097 30.5716C5.11491 31.7852 5.72949 32.9414 6.46387 34.0352C7.19303 35.1289 8.02637 36.1445 8.95345 37.0716C9.88574 38.0039 10.8962 38.832 11.9899 39.5664C13.0837 40.2956 14.2399 40.9154 15.4587 41.4154C16.6722 41.9206 17.9274 42.3008 19.2139 42.556C20.5055 42.8164 21.8076 42.9414 23.1253 42.9414C24.443 42.9414 25.7451 42.8164 27.0368 42.556C28.3285 42.3008 29.5785 41.9206 30.7972 41.4154C32.0107 40.9154 33.167 40.2956 34.2607 39.5664C35.3545 38.832 36.3649 38.0039 37.2972 37.0716C38.2295 36.1445 39.0576 35.1289 39.7868 34.0352C40.5212 32.9414 41.1357 31.7852 41.641 30.5716C42.1462 29.3529 42.5264 28.1029 42.7816 26.8112C43.0368 25.5195 43.167 24.2174 43.167 22.8997C43.167 21.5872 43.0368 20.2852 42.7764 18.9935C42.5212 17.7018 42.141 16.4518 41.6357 15.2331C41.1305 14.0195 40.516 12.8633 39.7816 11.7695C39.0524 10.6758 38.2191 9.66536 37.292 8.73828C36.3597 7.80599 35.3493 6.97266 34.2555 6.24349C33.1618 5.51432 32.0055 4.89453 30.792 4.38932C29.5785 3.88932 28.3232 3.50391 27.0368 3.2487C25.7451 2.99349 24.443 2.86328 23.1253 2.85807Z" fill="black"/>
</g>
<path d="M23.125 25.4484C22.8385 25.4484 22.5781 25.3599 22.3489 25.1828L11.1823 16.5578C11.0364 16.464 10.9166 16.339 10.8229 16.188C10.7291 16.0422 10.6666 15.8807 10.6406 15.7088C10.6146 15.537 10.6198 15.3651 10.6666 15.1932C10.7083 15.0213 10.7812 14.8703 10.8906 14.7297C11 14.589 11.1302 14.4797 11.2812 14.3911C11.4375 14.3078 11.5989 14.2557 11.776 14.2401C11.9479 14.2245 12.1198 14.2401 12.2864 14.2974C12.4531 14.3495 12.6041 14.4328 12.7343 14.5474L23.151 22.5838L34.2083 14.5317C34.3437 14.4224 34.4948 14.3442 34.6614 14.2922C34.8333 14.2453 35 14.2349 35.1771 14.2557C35.3489 14.2817 35.5104 14.3338 35.6614 14.4224C35.8125 14.5161 35.9375 14.6307 36.0416 14.7713C36.1406 14.912 36.2135 15.0682 36.25 15.2349C36.2916 15.4067 36.2916 15.5786 36.2604 15.7505C36.2291 15.9224 36.1666 16.0786 36.0677 16.2245C35.9739 16.3703 35.8489 16.4901 35.7031 16.5838L23.875 25.2088C23.651 25.3703 23.401 25.4484 23.125 25.4484Z" fill="black"/>
<path d="M11.9893 31.8919C11.4425 31.8919 11.057 31.6419 10.8331 31.1471C10.6091 30.6471 10.6768 30.194 11.0362 29.7826L18.9268 20.8242C19.1612 20.5586 19.4529 20.418 19.8018 20.3971C20.1508 20.3763 20.4581 20.4805 20.7237 20.7096C20.9893 20.944 21.13 21.2357 21.1508 21.5898C21.1716 21.9388 21.0675 22.2461 20.8331 22.5117L12.9112 31.4909C12.6612 31.7565 12.3539 31.8919 11.9893 31.8919Z" fill="black"/>
<path d="M34.5156 31.8919C34.1354 31.9023 33.8177 31.7669 33.5573 31.4909L25.6406 22.5117C25.4062 22.2461 25.3021 21.9388 25.3229 21.5898C25.3437 21.2357 25.4896 20.944 25.75 20.7148C26.0156 20.4805 26.3229 20.3763 26.6719 20.3971C27.0208 20.418 27.3125 20.5586 27.5469 20.8242L35.4635 29.7825C35.6927 30.043 35.8021 30.3503 35.7812 30.6992C35.7552 31.0534 35.6146 31.345 35.3542 31.5742C35.1146 31.7878 34.8333 31.8919 34.5156 31.8919Z" fill="black"/>
</svg>
