<svg width="46" height="46" viewBox="0 0 46 46" fill="none" xmlns="http://www.w3.org/2000/svg">
<mask id="mask0_129_965" style="mask-type:luminance" maskUnits="userSpaceOnUse" x="0" y="0" width="46" height="46">
<path d="M0.364258 0.316406H45.3643V45.3164H0.364258V0.316406Z" fill="white"/>
</mask>
<g mask="url(#mask0_129_965)">
<path d="M38.7705 6.90495C34.5205 2.65495 28.8747 0.316406 22.8643 0.316406C16.8538 0.316406 11.2028 2.65495 6.9528 6.90495C2.7028 11.1549 0.364258 16.806 0.364258 22.8164C0.364258 28.8268 2.7028 34.4779 6.9528 38.7279C11.2028 42.9727 16.8538 45.3164 22.8643 45.3164C28.8747 45.3164 34.5205 42.9727 38.7705 38.7279C43.0205 34.4779 45.3643 28.8268 45.3643 22.8164C45.3643 16.806 43.0205 11.1549 38.7705 6.90495ZM22.8643 43.8945C11.2393 43.8945 1.78092 34.4362 1.78092 22.8164C1.78092 11.1914 11.2393 1.73828 22.8643 1.73828C34.484 1.73828 43.9424 11.1914 43.9424 22.8164C43.9424 34.4362 34.484 43.8945 22.8643 43.8945Z" fill="black"/>
</g>
<path d="M16.2292 18.3164H11.4948C11.1042 18.3164 10.7812 18.6341 10.7812 19.0247V33.2383C10.7812 33.6289 11.1042 33.9466 11.4948 33.9466H16.2292C16.625 33.9466 16.9427 33.6289 16.9427 33.2383V19.0247C16.9427 18.6341 16.625 18.3164 16.2292 18.3164ZM15.5208 32.5247H12.2031V19.7383H15.5208V32.5247Z" fill="black"/>
<path d="M13.391 9.79297C11.4326 9.79297 9.83887 11.3867 9.83887 13.3451C9.83887 15.3034 11.4326 16.8971 13.391 16.8971C15.3493 16.8971 16.943 15.3034 16.943 13.3451C16.943 11.3867 15.3493 9.79297 13.391 9.79297ZM13.391 15.4753C12.2139 15.4753 11.2555 14.5221 11.2555 13.3451C11.2555 12.168 12.2139 11.2148 13.391 11.2148C14.5628 11.2148 15.5212 12.168 15.5212 13.3451C15.5212 14.5221 14.5628 15.4753 13.391 15.4753Z" fill="black"/>
<path d="M29.4945 18.3164C28.083 18.3164 26.6924 18.681 25.4684 19.3633V19.0247C25.4684 18.6341 25.1507 18.3164 24.7549 18.3164H20.9684C20.5778 18.3164 20.2549 18.6341 20.2549 19.0247V33.2383C20.2549 33.6289 20.5778 33.9466 20.9684 33.9466H25.7028C26.0986 33.9466 26.4163 33.6289 26.4163 33.2383V28.1341C26.4163 26.4622 26.7861 24.4727 28.5465 24.4727C29.859 24.4727 30.4007 25.582 30.5882 26.8372C30.6403 27.1862 30.9424 27.4362 31.2913 27.4362C31.7288 27.4362 32.057 27.0456 31.9893 26.6133C31.6299 24.332 30.4215 23.0508 28.5465 23.0508C26.2913 23.0508 24.9945 24.9049 24.9945 28.1341V32.5247H21.6768V19.7383H24.0465V20.6706C24.0465 20.8893 24.1403 21.1081 24.3122 21.2435C24.5778 21.457 24.9476 21.4518 25.2028 21.2435C26.432 20.2591 27.9163 19.7383 29.4945 19.7383C33.583 19.7383 35.4163 23.1862 35.4163 26.6029V32.5247H32.0986V30.1862C32.0986 29.7956 31.7809 29.4779 31.3903 29.4779H31.3851C30.9945 29.4779 30.6768 29.7956 30.6768 30.1862V33.2383C30.6768 33.6289 30.9945 33.9466 31.3903 33.9466H36.1247C36.5205 33.9466 36.8382 33.6289 36.8382 33.2383V26.6029C36.8382 21.7227 33.8174 18.3164 29.4945 18.3164Z" fill="black"/>
</svg>
